{"asset":{"version":"2.0","generator":"THREE.GLTFExporter"},"scenes":[{"nodes":[0]}],"scene":0,"nodes":[{"mesh":0}],"bufferViews":[{"buffer":0,"byteOffset":0,"byteLength":3240,"target":34962,"byteStride":12},{"buffer":0,"byteOffset":3240,"byteLength":540,"target":34963}],"buffers":[{"byteLength":3780,"uri":"data:application/octet-stream;base64,"}],"accessors":[{"bufferView":0,"componentType":5126,"count":270,"max":[3.7346599102020264,2.3804566860198975,3.673567295074463],"min":[-3.2653400897979736,0.18045669794082642,-6.726432800292969],"type":"VEC3"},{"bufferView":1,"componentType":5123,"count":270,"max":[269],"min":[0],"type":"SCALAR"}],"materials":[{"pbrMetallicRoughness":{"metallicFactor":0,"roughnessFactor":1}}],"meshes":[{"primitives":[{"mode":4,"attributes":{"POSITION":0},"indices":1,"material":0}]}]}