{"asset":{"version":"2.0","generator":"THREE.GLTFExporter"},"scenes":[{"nodes":[0]}],"scene":0,"nodes":[{"mesh":0}],"bufferViews":[{"buffer":0,"byteOffset":0,"byteLength":8676,"target":34962,"byteStride":12},{"buffer":0,"byteOffset":8676,"byteLength":1448,"target":34963}],"buffers":[{"byteLength":10124,"uri":"data:application/octet-stream;base64,"}],"accessors":[{"bufferView":0,"componentType":5126,"count":723,"max":[3.7346599102020264,8.258678436279297,3.6735668182373047],"min":[-3.2653400897979736,0.25867900252342224,-6.726433277130127],"type":"VEC3"},{"bufferView":1,"componentType":5123,"count":723,"max":[722],"min":[0],"type":"SCALAR"}],"materials":[{"pbrMetallicRoughness":{"metallicFactor":0,"roughnessFactor":1}}],"meshes":[{"primitives":[{"mode":4,"attributes":{"POSITION":0},"indices":1,"material":0}]}]}