# Blender 3.6.2
# www.blender.org
mtllib coridor.mtl
o Plane.001
v 1.776597 0.000000 4.143998
v 2.955270 0.000000 4.143998
v 1.776597 0.000000 -0.747439
v 2.955270 0.000000 -0.747439
v -3.665339 0.000000 3.793094
v -1.934877 0.000000 3.793094
v -3.665339 0.000000 -5.741596
v -1.934877 0.000000 -5.741596
v -1.944321 0.000000 -0.181452
v 1.371732 0.000000 -0.181452
v -1.944321 0.000000 -1.948916
v 1.371732 0.000000 -1.948916
v 1.343345 0.000000 -0.164867
v 1.887598 0.000000 -0.164867
v 1.343345 0.000000 -4.657004
v 1.887598 0.000000 -4.657004
v 1.526572 0.000000 -1.677512
v 3.459838 0.000000 -1.677512
v 1.526572 0.000000 -7.126432
v 3.459838 0.000000 -7.126432
v 2.448939 0.000000 -0.164867
v 3.472877 0.000000 -0.164867
v 2.448939 0.000000 -4.657004
v 3.472877 0.000000 -4.657004
v 2.045705 0.000000 4.135600
v 4.045705 0.000000 4.135600
v 2.045705 0.000000 0.739202
v 4.045705 0.000000 0.739202
vn -0.0000 1.0000 -0.0000
vt 0.000000 0.000000
vt 1.000000 0.000000
vt 1.000000 1.000000
vt 0.000000 1.000000
s 0
usemtl 
f 1/1/1 2/2/1 4/3/1 3/4/1
f 5/1/1 6/2/1 8/3/1 7/4/1
f 9/1/1 10/2/1 12/3/1 11/4/1
f 13/1/1 14/2/1 16/3/1 15/4/1
f 17/1/1 18/2/1 20/3/1 19/4/1
f 21/1/1 22/2/1 24/3/1 23/4/1
f 25/1/1 26/2/1 28/3/1 27/4/1
